# xmcd
#
# Track frame offsets: 
#        150
#        23366
#        48900
#        68625
#        86025
#        108694
#        124969
#        145294
#        160969
#        179569
#        199294
#        212044
#        236419
#        250369
#        277069
#        281044
#        315244
#
# Disc length: 4625 seconds
#
# Revision: 0
# Processed by: cddbd v1.5.2PL0 Copyright (c) Steve Scherf et al.
# Submitted via: ExactAudioCopyFreeDBPlugin 1.0
#
DISCID=00120f11
DTITLE=Various Artist - Sensation Innerspace [CD2 - Mixed By Mr. White)
DYEAR=2011
DGENRE=Electronic
TTITLE0=Maya Jane Coles - What They Say (Dyed Soundorom Remix)
TTITLE1=Boris Werner - Groupie Love
TTITLE2=Surrealism - Sunday Love
TTITLE3=Steve Mac - Moosique
TTITLE4=Audio Junkies - Remember
TTITLE5=Ilario Alicante - Balance
TTITLE6=Ray Okpara - Booty
TTITLE7=And.Id - Dirty Thirty
TTITLE8=Aaron Und Pascal - Back From More
TTITLE9=Markus Homm and Hermannstadt Collective - Midnight Fun
TTITLE10=Kaiserdisco - Simplistix
TTITLE11=Nicole Moudaber - Five Point Palm
TTITLE12=Alex Miles - Umm,Yeah
TTITLE13=Kasbah Zoo - Palabras
TTITLE14=Juan Sanchez and Daniel Sanchez - Inner Sense
TTITLE15=Franck Valat - H.U.R.T.S. (Saccobros Day Remix)
TTITLE16=Uner - BassBoot
EXTD=
EXTT0=
EXTT1=
EXTT2=
EXTT3=
EXTT4=
EXTT5=
EXTT6=
EXTT7=
EXTT8=
EXTT9=
EXTT10=
EXTT11=
EXTT12=
EXTT13=
EXTT14=
EXTT15=
EXTT16=
PLAYORDER=
